<svg width="24" height="24" viewBox="0 0 24 24" fill="none" xmlns="http://www.w3.org/2000/svg">
<path d="M13.1533 3.92654C13.1533 3.28956 12.6369 2.77319 12 2.77319C11.363 2.77319 10.8466 3.28956 10.8466 3.92654V10.8466H3.92654C3.28956 10.8466 2.77319 11.363 2.77319 12C2.77319 12.6369 3.28956 13.1533 3.92654 13.1533H10.8466V20.0734C10.8466 20.7104 11.363 21.2267 12 21.2267C12.6369 21.2267 13.1533 20.7104 13.1533 20.0734V13.1533H20.0734C20.7104 13.1533 21.2267 12.6369 21.2267 12C21.2267 11.363 20.7104 10.8466 20.0734 10.8466H13.1533V3.92654Z" fill="black"/>
</svg>
