<svg width="174" height="72" viewBox="0 0 174 72" fill="none" xmlns="http://www.w3.org/2000/svg">
<path d="M0 71V1.18182H30.1364C35.3182 1.18182 39.8523 2.20454 43.7386 4.25C47.625 6.29545 50.6477 9.17045 52.8068 12.875C54.9659 16.5795 56.0455 20.9091 56.0455 25.8636C56.0455 30.8636 54.9318 35.1932 52.7045 38.8523C50.5 42.5114 47.3977 45.3295 43.3977 47.3068C39.4205 49.2841 34.7727 50.2727 29.4545 50.2727H11.4545V35.5455H25.6364C27.8636 35.5455 29.7614 35.1591 31.3295 34.3864C32.9205 33.5909 34.1364 32.4659 34.9773 31.0114C35.8409 29.5568 36.2727 27.8409 36.2727 25.8636C36.2727 23.8636 35.8409 22.1591 34.9773 20.75C34.1364 19.3182 32.9205 18.2273 31.3295 17.4773C29.7614 16.7045 27.8636 16.3182 25.6364 16.3182H18.9545V71H0ZM119.116 36.0909C119.116 43.8636 117.605 50.4205 114.582 55.7614C111.56 61.0795 107.48 65.1136 102.344 67.8636C97.2073 70.5909 91.48 71.9545 85.1618 71.9545C78.7982 71.9545 73.0482 70.5795 67.9118 67.8295C62.7982 65.0568 58.73 61.0114 55.7073 55.6932C52.7073 50.3523 51.2073 43.8182 51.2073 36.0909C51.2073 28.3182 52.7073 21.7727 55.7073 16.4545C58.73 11.1136 62.7982 7.07954 67.9118 4.35227C73.0482 1.60227 78.7982 0.22727 85.1618 0.22727C91.48 0.22727 97.2073 1.60227 102.344 4.35227C107.48 7.07954 111.56 11.1136 114.582 16.4545C117.605 21.7727 119.116 28.3182 119.116 36.0909ZM99.6164 36.0909C99.6164 31.9091 99.0595 28.3864 97.9459 25.5227C96.855 22.6364 95.23 20.4545 93.0709 18.9773C90.9345 17.4773 88.2982 16.7273 85.1618 16.7273C82.0255 16.7273 79.3777 17.4773 77.2186 18.9773C75.0823 20.4545 73.4573 22.6364 72.3436 25.5227C71.2527 28.3864 70.7073 31.9091 70.7073 36.0909C70.7073 40.2727 71.2527 43.8068 72.3436 46.6932C73.4573 49.5568 75.0823 51.7386 77.2186 53.2386C79.3777 54.7159 82.0255 55.4545 85.1618 55.4545C88.2982 55.4545 90.9345 54.7159 93.0709 53.2386C95.23 51.7386 96.855 49.5568 97.9459 46.6932C99.0595 43.8068 99.6164 40.2727 99.6164 36.0909ZM154.003 23C153.821 20.7273 152.969 18.9545 151.446 17.6818C149.946 16.4091 147.662 15.7727 144.594 15.7727C142.639 15.7727 141.037 16.0114 139.787 16.4886C138.559 16.9432 137.65 17.5682 137.059 18.3636C136.469 19.1591 136.162 20.0682 136.139 21.0909C136.094 21.9318 136.241 22.6932 136.582 23.375C136.946 24.0341 137.514 24.6364 138.287 25.1818C139.059 25.7045 140.048 26.1818 141.253 26.6136C142.457 27.0455 143.889 27.4318 145.548 27.7727L151.275 29C155.139 29.8182 158.446 30.8977 161.196 32.2386C163.946 33.5795 166.196 35.1591 167.946 36.9773C169.696 38.7727 170.98 40.7955 171.798 43.0455C172.639 45.2955 173.071 47.75 173.094 50.4091C173.071 55 171.923 58.8864 169.65 62.0682C167.378 65.25 164.128 67.6705 159.9 69.3295C155.696 70.9886 150.639 71.8182 144.73 71.8182C138.662 71.8182 133.366 70.9205 128.844 69.125C124.344 67.3295 120.844 64.5682 118.344 60.8409C115.866 57.0909 114.616 52.2955 114.594 46.4545H132.594C132.707 48.5909 133.241 50.3864 134.196 51.8409C135.15 53.2955 136.491 54.3977 138.219 55.1477C139.969 55.8977 142.048 56.2727 144.457 56.2727C146.48 56.2727 148.173 56.0227 149.537 55.5227C150.9 55.0227 151.934 54.3295 152.639 53.4432C153.344 52.5568 153.707 51.5455 153.73 50.4091C153.707 49.3409 153.355 48.4091 152.673 47.6136C152.014 46.7955 150.923 46.0682 149.4 45.4318C147.878 44.7727 145.821 44.1591 143.23 43.5909L136.275 42.0909C130.094 40.75 125.219 38.5114 121.65 35.375C118.105 32.2159 116.344 27.9091 116.366 22.4545C116.344 18.0227 117.525 14.1477 119.912 10.8295C122.321 7.48863 125.65 4.88636 129.9 3.02272C134.173 1.15909 139.071 0.22727 144.594 0.22727C150.23 0.22727 155.105 1.17045 159.219 3.05682C163.332 4.94318 166.503 7.60227 168.73 11.0341C170.98 14.4432 172.116 18.4318 172.139 23H154.003Z" fill="url(#paint0_linear_45_16)"/>
<defs>
<linearGradient id="paint0_linear_45_16" x1="4.89174" y1="0.499456" x2="157.051" y2="79.2394" gradientUnits="userSpaceOnUse">
<stop stop-color="#9E88E4"/>
<stop offset="1" stop-color="#E0C8FF"/>
</linearGradient>
</defs>
</svg>
