<svg width="23" height="19" viewBox="0 0 23 19" fill="none" xmlns="http://www.w3.org/2000/svg">
<path fill-rule="evenodd" clip-rule="evenodd" d="M10.1185 0.878907H4.44143C3.91429 0.87889 3.45951 0.878875 3.08494 0.909478C2.6896 0.941779 2.29638 1.0131 1.918 1.20589C1.35351 1.49351 0.894571 1.95245 0.606951 2.51694C0.414157 2.89532 0.342841 3.28854 0.31054 3.68388C0.279937 4.05844 0.279952 4.51319 0.279969 5.04032V12.8789C0.279969 14.2195 1.15934 15.3548 2.37273 15.7393C2.76632 17.5349 4.36619 18.8789 6.27997 18.8789C8.14381 18.8789 9.70991 17.6041 10.154 15.8789H13.2603L13.28 15.8791H13.8154C14.0581 17.5752 15.5168 18.8789 17.28 18.8789C19.0641 18.8789 20.5365 17.5439 20.7526 15.8184C20.8473 15.7974 20.9456 15.7682 21.0453 15.7269C21.5354 15.5239 21.9247 15.1345 22.1277 14.6445C22.2247 14.4104 22.2551 14.1847 22.2681 13.9943C22.28 13.8202 22.28 13.6156 22.28 13.4056L22.28 10.5418L22.2801 10.4908C22.2806 10.3009 22.2812 10.0618 22.2247 9.82642C22.1757 9.62235 22.0949 9.42726 21.9852 9.24831C21.8588 9.04196 21.6892 8.87331 21.5546 8.73938L21.5184 8.70336L17.4557 4.64062L17.4197 4.60447C17.2858 4.46982 17.1171 4.30027 16.9108 4.17382C16.7318 4.06416 16.5367 3.98335 16.3326 3.93436C16.0973 3.87786 15.8582 3.8785 15.6683 3.87901L15.6172 3.8791H14.2624C14.2588 3.81179 14.2545 3.74671 14.2494 3.68388C14.2171 3.28854 14.1458 2.89532 13.953 2.51694C13.6654 1.95245 13.2064 1.49351 12.6419 1.20589C12.2636 1.0131 11.8703 0.941779 11.475 0.909478C11.1004 0.878875 10.6456 0.87889 10.1185 0.878907ZM6.27997 12.8789C5.1754 12.8789 4.27997 13.7743 4.27997 14.8789C4.27997 15.9835 5.1754 16.8789 6.27997 16.8789C7.38454 16.8789 8.27997 15.9835 8.27997 14.8789C8.27997 13.7743 7.38454 12.8789 6.27997 12.8789ZM15.78 15.3789C15.78 14.5505 16.4515 13.8789 17.28 13.8789C18.1084 13.8789 18.78 14.5505 18.78 15.3789C18.78 16.2073 18.1084 16.8789 17.28 16.8789C16.4515 16.8789 15.78 16.2073 15.78 15.3789Z" fill="black"/>
<path fill-rule="evenodd" clip-rule="evenodd" d="M10.1185 0.878907H4.44143C3.91429 0.87889 3.45951 0.878875 3.08494 0.909478C2.6896 0.941779 2.29638 1.0131 1.918 1.20589C1.35351 1.49351 0.894571 1.95245 0.606951 2.51694C0.414157 2.89532 0.342841 3.28854 0.31054 3.68388C0.279937 4.05844 0.279952 4.51319 0.279969 5.04032V12.8789C0.279969 14.2195 1.15934 15.3548 2.37273 15.7393C2.76632 17.5349 4.36619 18.8789 6.27997 18.8789C8.14381 18.8789 9.70991 17.6041 10.154 15.8789H13.2603L13.28 15.8791H13.8154C14.0581 17.5752 15.5168 18.8789 17.28 18.8789C19.0641 18.8789 20.5365 17.5439 20.7526 15.8184C20.8473 15.7974 20.9456 15.7682 21.0453 15.7269C21.5354 15.5239 21.9247 15.1345 22.1277 14.6445C22.2247 14.4104 22.2551 14.1847 22.2681 13.9943C22.28 13.8202 22.28 13.6156 22.28 13.4056L22.28 10.5418L22.2801 10.4908C22.2806 10.3009 22.2812 10.0618 22.2247 9.82642C22.1757 9.62235 22.0949 9.42726 21.9852 9.24831C21.8588 9.04196 21.6892 8.87331 21.5546 8.73938L21.5184 8.70336L17.4557 4.64062L17.4197 4.60447C17.2858 4.46982 17.1171 4.30027 16.9108 4.17382C16.7318 4.06416 16.5367 3.98335 16.3326 3.93436C16.0973 3.87786 15.8582 3.8785 15.6683 3.87901L15.6172 3.8791H14.2624C14.2588 3.81179 14.2545 3.74671 14.2494 3.68388C14.2171 3.28854 14.1458 2.89532 13.953 2.51694C13.6654 1.95245 13.2064 1.49351 12.6419 1.20589C12.2636 1.0131 11.8703 0.941779 11.475 0.909478C11.1004 0.878875 10.6456 0.87889 10.1185 0.878907ZM6.27997 12.8789C5.1754 12.8789 4.27997 13.7743 4.27997 14.8789C4.27997 15.9835 5.1754 16.8789 6.27997 16.8789C7.38454 16.8789 8.27997 15.9835 8.27997 14.8789C8.27997 13.7743 7.38454 12.8789 6.27997 12.8789ZM15.78 15.3789C15.78 14.5505 16.4515 13.8789 17.28 13.8789C18.1084 13.8789 18.78 14.5505 18.78 15.3789C18.78 16.2073 18.1084 16.8789 17.28 16.8789C16.4515 16.8789 15.78 16.2073 15.78 15.3789Z" fill="black"/>
</svg>
