<svg width="415" height="150" viewBox="0 0 415 150" fill="none" xmlns="http://www.w3.org/2000/svg">
<path d="M253.561 77.6752V66.7661H255.831V70.8676H255.9C255.999 70.6475 256.143 70.4238 256.331 70.1965C256.523 69.9657 256.772 69.7739 257.077 69.6212C257.386 69.4649 257.77 69.3868 258.228 69.3868C258.824 69.3868 259.375 69.5431 259.879 69.8556C260.383 70.1645 260.786 70.6315 261.088 71.2565C261.39 71.8779 261.541 72.6574 261.541 73.5949C261.541 74.5076 261.393 75.2782 261.099 75.9067C260.808 76.5317 260.41 77.0058 259.906 77.3289C259.405 77.6485 258.844 77.8083 258.222 77.8083C257.782 77.8083 257.407 77.7355 257.098 77.5899C256.793 77.4443 256.543 77.2615 256.347 77.0413C256.152 76.8176 256.003 76.5921 255.9 76.3648H255.799V77.6752H253.561ZM255.783 73.5843C255.783 74.0708 255.85 74.4951 255.985 74.8573C256.12 75.2196 256.315 75.5019 256.571 75.7043C256.827 75.9032 257.137 76.0026 257.503 76.0026C257.873 76.0026 258.185 75.9014 258.441 75.699C258.696 75.493 258.89 75.2089 259.021 74.8467C259.156 74.4809 259.224 74.0601 259.224 73.5843C259.224 73.112 259.158 72.6965 259.027 72.3378C258.895 71.9791 258.702 71.6986 258.446 71.4962C258.19 71.2938 257.876 71.1926 257.503 71.1926C257.134 71.1926 256.821 71.2902 256.566 71.4855C256.314 71.6809 256.12 71.9578 255.985 72.3165C255.85 72.6752 255.783 73.0978 255.783 73.5843ZM264.192 80.7434C263.905 80.7434 263.635 80.7203 263.383 80.6741C263.134 80.6315 262.928 80.5764 262.765 80.509L263.276 78.8151C263.542 78.8968 263.782 78.9412 263.995 78.9483C264.212 78.9554 264.398 78.9056 264.554 78.7991C264.714 78.6926 264.844 78.5115 264.943 78.2558L265.076 77.9095L262.141 69.4934H264.528L266.222 75.5019H266.307L268.017 69.4934H270.419L267.239 78.5594C267.086 78.9997 266.879 79.3833 266.616 79.71C266.357 80.0402 266.028 80.2941 265.63 80.4717C265.233 80.6528 264.753 80.7434 264.192 80.7434Z" fill="white"/>
<rect x="252.409" y="88.7322" width="19" height="19" rx="5" fill="white"/>
<path d="M290.418 97.556C290.418 98.7704 290.181 99.7949 289.709 100.629C289.237 101.46 288.599 102.091 287.797 102.52C286.994 102.947 286.099 103.16 285.112 103.16C284.118 103.16 283.219 102.945 282.417 102.515C281.618 102.082 280.982 101.45 280.51 100.619C280.041 99.7843 279.807 98.7633 279.807 97.556C279.807 96.3415 280.041 95.3187 280.51 94.4878C280.982 93.6533 281.618 93.0229 282.417 92.5968C283.219 92.1671 284.118 91.9523 285.112 91.9523C286.099 91.9523 286.994 92.1671 287.797 92.5968C288.599 93.0229 289.237 93.6533 289.709 94.4878C290.181 95.3187 290.418 96.3415 290.418 97.556ZM287.371 97.556C287.371 96.9025 287.284 96.3521 287.11 95.9047C286.939 95.4537 286.685 95.1128 286.348 94.8819C286.014 94.6476 285.602 94.5304 285.112 94.5304C284.622 94.5304 284.208 94.6476 283.871 94.8819C283.537 95.1128 283.283 95.4537 283.109 95.9047C282.939 96.3521 282.854 96.9025 282.854 97.556C282.854 98.2094 282.939 98.7616 283.109 99.2126C283.283 99.66 283.537 100.001 283.871 100.235C284.208 100.466 284.622 100.582 285.112 100.582C285.602 100.582 286.014 100.466 286.348 100.235C286.685 100.001 286.939 99.66 287.11 99.2126C287.284 98.7616 287.371 98.2094 287.371 97.556ZM291.53 106.079V94.8287H294.449V96.2562H294.513C294.62 95.9792 294.776 95.7253 294.982 95.4945C295.188 95.2601 295.444 95.0737 295.749 94.9352C296.055 94.7932 296.41 94.7221 296.815 94.7221C297.354 94.7221 297.867 94.866 298.354 95.1536C298.844 95.4413 299.242 95.894 299.547 96.5119C299.856 97.1298 300.011 97.9324 300.011 98.9196C300.011 99.8642 299.863 100.647 299.568 101.269C299.277 101.89 298.887 102.354 298.397 102.659C297.91 102.964 297.376 103.117 296.793 103.117C296.41 103.117 296.067 103.055 295.765 102.931C295.467 102.803 295.211 102.631 294.998 102.414C294.789 102.194 294.627 101.945 294.513 101.668H294.471V106.079H291.53ZM294.407 98.9196C294.407 99.3173 294.458 99.6618 294.561 99.953C294.668 100.241 294.817 100.464 295.009 100.624C295.204 100.78 295.437 100.859 295.707 100.859C295.976 100.859 296.206 100.782 296.394 100.629C296.585 100.473 296.731 100.251 296.831 99.9636C296.934 99.6724 296.985 99.3244 296.985 98.9196C296.985 98.5148 296.934 98.1685 296.831 97.8809C296.731 97.5897 296.585 97.3677 296.394 97.215C296.206 97.0588 295.976 96.9807 295.707 96.9807C295.437 96.9807 295.204 97.0588 295.009 97.215C294.817 97.3677 294.668 97.5897 294.561 97.8809C294.458 98.1685 294.407 98.5148 294.407 98.9196ZM304.863 103.16C303.989 103.16 303.236 102.993 302.604 102.659C301.976 102.322 301.491 101.839 301.15 101.21C300.813 100.578 300.644 99.8216 300.644 98.9409C300.644 98.0957 300.815 97.3571 301.155 96.725C301.496 96.0929 301.978 95.6011 302.599 95.2495C303.22 94.8979 303.954 94.7221 304.799 94.7221C305.417 94.7221 305.976 94.818 306.477 95.0098C306.978 95.2015 307.405 95.4803 307.761 95.8461C308.116 96.2083 308.389 96.6486 308.581 97.1671C308.773 97.6856 308.869 98.2697 308.869 98.9196V99.6014H301.56V97.9821H306.163C306.159 97.7477 306.099 97.5417 305.981 97.3642C305.868 97.1831 305.713 97.0428 305.518 96.9434C305.326 96.8404 305.108 96.7889 304.863 96.7889C304.625 96.7889 304.407 96.8404 304.208 96.9434C304.009 97.0428 303.849 97.1813 303.728 97.3589C303.611 97.5364 303.549 97.7442 303.542 97.9821V99.7292C303.542 99.992 303.597 100.226 303.707 100.432C303.817 100.638 303.975 100.8 304.181 100.917C304.387 101.034 304.636 101.093 304.927 101.093C305.129 101.093 305.314 101.064 305.481 101.008C305.651 100.951 305.797 100.869 305.918 100.763C306.038 100.653 306.127 100.521 306.184 100.368H308.869C308.776 100.937 308.558 101.43 308.213 101.849C307.869 102.265 307.413 102.588 306.844 102.819C306.28 103.046 305.619 103.16 304.863 103.16ZM312.709 98.4082V103.01H309.768V94.8287H312.56V96.3841H312.645C312.822 95.8656 313.135 95.459 313.582 95.1643C314.033 94.8695 314.559 94.7221 315.159 94.7221C315.738 94.7221 316.24 94.8553 316.666 95.1216C317.096 95.3844 317.428 95.7466 317.663 96.2083C317.9 96.6699 318.018 97.1973 318.014 97.7903V103.01H315.074V98.4082C315.077 98.0034 314.974 97.6856 314.765 97.4547C314.559 97.2239 314.271 97.1085 313.902 97.1085C313.66 97.1085 313.449 97.1618 313.268 97.2683C313.09 97.3713 312.954 97.5204 312.858 97.7158C312.762 97.9075 312.712 98.1383 312.709 98.4082ZM325.004 95.5105C324.975 95.1554 324.842 94.8784 324.604 94.6795C324.37 94.4807 324.013 94.3812 323.534 94.3812C323.228 94.3812 322.978 94.4185 322.782 94.4931C322.591 94.5641 322.449 94.6618 322.356 94.7861C322.264 94.9104 322.216 95.0524 322.212 95.2122C322.205 95.3436 322.228 95.4626 322.282 95.5691C322.339 95.6721 322.427 95.7662 322.548 95.8514C322.669 95.9331 322.823 96.0077 323.011 96.0751C323.2 96.1426 323.423 96.203 323.683 96.2562L324.578 96.448C325.181 96.5758 325.698 96.7445 326.128 96.954C326.557 97.1636 326.909 97.4104 327.182 97.6944C327.456 97.975 327.656 98.291 327.784 98.6426C327.916 98.9942 327.983 99.3777 327.987 99.7932C327.983 100.51 327.804 101.118 327.449 101.615C327.094 102.112 326.586 102.49 325.925 102.749C325.268 103.009 324.478 103.138 323.555 103.138C322.607 103.138 321.779 102.998 321.073 102.718C320.369 102.437 319.823 102.006 319.432 101.423C319.045 100.837 318.85 100.088 318.846 99.1753H321.659C321.676 99.5091 321.76 99.7896 321.909 100.017C322.058 100.244 322.268 100.416 322.537 100.534C322.811 100.651 323.136 100.709 323.512 100.709C323.828 100.709 324.093 100.67 324.306 100.592C324.519 100.514 324.681 100.406 324.791 100.267C324.901 100.129 324.958 99.9707 324.961 99.7932C324.958 99.6263 324.902 99.4807 324.796 99.3564C324.693 99.2285 324.523 99.1149 324.285 99.0155C324.047 98.9125 323.725 98.8166 323.32 98.7278L322.234 98.4935C321.268 98.2839 320.506 97.9341 319.949 97.4441C319.395 96.9505 319.119 96.2775 319.123 95.4253C319.119 94.7328 319.304 94.1273 319.677 93.6089C320.053 93.0868 320.574 92.6802 321.238 92.389C321.905 92.0979 322.671 91.9523 323.534 91.9523C324.414 91.9523 325.176 92.0996 325.819 92.3944C326.461 92.6891 326.957 93.1046 327.305 93.6408C327.656 94.1735 327.834 94.7967 327.837 95.5105H325.004ZM333.735 94.8287V96.9594H328.344V94.8287H333.735ZM329.389 92.8685H332.329V100.379C332.329 100.493 332.348 100.589 332.387 100.667C332.427 100.741 332.487 100.798 332.569 100.837C332.65 100.873 332.755 100.89 332.883 100.89C332.972 100.89 333.075 100.88 333.192 100.859C333.313 100.837 333.401 100.819 333.458 100.805L333.884 102.872C333.753 102.911 333.565 102.959 333.32 103.016C333.078 103.073 332.791 103.11 332.457 103.128C331.782 103.163 331.216 103.094 330.757 102.92C330.299 102.742 329.955 102.464 329.724 102.084C329.493 101.704 329.381 101.228 329.389 100.656V92.8685ZM338.489 103.16C337.601 103.16 336.841 102.984 336.209 102.632C335.577 102.277 335.092 101.784 334.755 101.151C334.417 100.516 334.249 99.779 334.249 98.9409C334.249 98.1028 334.417 97.3677 334.755 96.7356C335.092 96.1 335.577 95.6064 336.209 95.2548C336.841 94.8997 337.601 94.7221 338.489 94.7221C339.377 94.7221 340.137 94.8997 340.769 95.2548C341.401 95.6064 341.885 96.1 342.223 96.7356C342.56 97.3677 342.729 98.1028 342.729 98.9409C342.729 99.779 342.56 100.516 342.223 101.151C341.885 101.784 341.401 102.277 340.769 102.632C340.137 102.984 339.377 103.16 338.489 103.16ZM338.51 100.986C338.759 100.986 338.974 100.903 339.155 100.736C339.336 100.569 339.476 100.331 339.575 100.022C339.675 99.7133 339.725 99.3457 339.725 98.9196C339.725 98.4899 339.675 98.1224 339.575 97.817C339.476 97.508 339.336 97.2701 339.155 97.1032C338.974 96.9363 338.759 96.8528 338.51 96.8528C338.247 96.8528 338.022 96.9363 337.834 97.1032C337.645 97.2701 337.502 97.508 337.402 97.817C337.303 98.1224 337.253 98.4899 337.253 98.9196C337.253 99.3457 337.303 99.7133 337.402 100.022C337.502 100.331 337.645 100.569 337.834 100.736C338.022 100.903 338.247 100.986 338.51 100.986ZM347.564 103.16C346.676 103.16 345.916 102.984 345.284 102.632C344.652 102.277 344.167 101.784 343.83 101.151C343.492 100.516 343.324 99.779 343.324 98.9409C343.324 98.1028 343.492 97.3677 343.83 96.7356C344.167 96.1 344.652 95.6064 345.284 95.2548C345.916 94.8997 346.676 94.7221 347.564 94.7221C348.366 94.7221 349.061 94.8677 349.647 95.1589C350.236 95.4466 350.692 95.855 351.016 96.3841C351.339 96.9096 351.502 97.5275 351.506 98.2378H348.778C348.739 97.8081 348.615 97.4814 348.405 97.2577C348.199 97.0304 347.933 96.9167 347.606 96.9167C347.351 96.9167 347.127 96.9913 346.935 97.1405C346.744 97.2861 346.594 97.508 346.488 97.8063C346.381 98.1011 346.328 98.4721 346.328 98.9196C346.328 99.367 346.381 99.7399 346.488 100.038C346.594 100.333 346.744 100.555 346.935 100.704C347.127 100.85 347.351 100.922 347.606 100.922C347.823 100.922 348.015 100.873 348.182 100.773C348.349 100.67 348.484 100.521 348.587 100.326C348.693 100.127 348.757 99.8855 348.778 99.6014H351.506C351.495 100.322 351.33 100.951 351.01 101.487C350.691 102.02 350.238 102.432 349.652 102.723C349.07 103.014 348.373 103.16 347.564 103.16ZM355.061 101.072L355.082 97.5773H355.466L357.447 94.8287H360.75L357.426 99.1114H356.595L355.061 101.072ZM352.419 103.01V92.1014H355.359V103.01H352.419ZM357.468 103.01L355.593 99.7719L357.511 97.6838L360.835 103.01H357.468Z" fill="white"/>
<path d="M54 110V40.1818H84.1364C89.3182 40.1818 93.8523 41.2045 97.7386 43.25C101.625 45.2955 104.648 48.1705 106.807 51.875C108.966 55.5795 110.045 59.9091 110.045 64.8636C110.045 69.8636 108.932 74.1932 106.705 77.8523C104.5 81.5114 101.398 84.3295 97.3977 86.3068C93.4205 88.2841 88.7727 89.2727 83.4545 89.2727H65.4545V74.5455H79.6364C81.8636 74.5455 83.7614 74.1591 85.3295 73.3864C86.9205 72.5909 88.1364 71.4659 88.9773 70.0114C89.8409 68.5568 90.2727 66.8409 90.2727 64.8636C90.2727 62.8636 89.8409 61.1591 88.9773 59.75C88.1364 58.3182 86.9205 57.2273 85.3295 56.4773C83.7614 55.7045 81.8636 55.3182 79.6364 55.3182H72.9545V110H54ZM173.116 75.0909C173.116 82.8636 171.605 89.4205 168.582 94.7614C165.56 100.08 161.48 104.114 156.344 106.864C151.207 109.591 145.48 110.955 139.162 110.955C132.798 110.955 127.048 109.58 121.912 106.83C116.798 104.057 112.73 100.011 109.707 94.6932C106.707 89.3523 105.207 82.8182 105.207 75.0909C105.207 67.3182 106.707 60.7727 109.707 55.4545C112.73 50.1136 116.798 46.0795 121.912 43.3523C127.048 40.6023 132.798 39.2273 139.162 39.2273C145.48 39.2273 151.207 40.6023 156.344 43.3523C161.48 46.0795 165.56 50.1136 168.582 55.4545C171.605 60.7727 173.116 67.3182 173.116 75.0909ZM153.616 75.0909C153.616 70.9091 153.06 67.3864 151.946 64.5227C150.855 61.6364 149.23 59.4545 147.071 57.9773C144.935 56.4773 142.298 55.7273 139.162 55.7273C136.025 55.7273 133.378 56.4773 131.219 57.9773C129.082 59.4545 127.457 61.6364 126.344 64.5227C125.253 67.3864 124.707 70.9091 124.707 75.0909C124.707 79.2727 125.253 82.8068 126.344 85.6932C127.457 88.5568 129.082 90.7386 131.219 92.2386C133.378 93.7159 136.025 94.4545 139.162 94.4545C142.298 94.4545 144.935 93.7159 147.071 92.2386C149.23 90.7386 150.855 88.5568 151.946 85.6932C153.06 82.8068 153.616 79.2727 153.616 75.0909ZM208.003 62C207.821 59.7273 206.969 57.9545 205.446 56.6818C203.946 55.4091 201.662 54.7727 198.594 54.7727C196.639 54.7727 195.037 55.0114 193.787 55.4886C192.559 55.9432 191.65 56.5682 191.059 57.3636C190.469 58.1591 190.162 59.0682 190.139 60.0909C190.094 60.9318 190.241 61.6932 190.582 62.375C190.946 63.0341 191.514 63.6364 192.287 64.1818C193.059 64.7045 194.048 65.1818 195.253 65.6136C196.457 66.0455 197.889 66.4318 199.548 66.7727L205.275 68C209.139 68.8182 212.446 69.8977 215.196 71.2386C217.946 72.5795 220.196 74.1591 221.946 75.9773C223.696 77.7727 224.98 79.7955 225.798 82.0455C226.639 84.2955 227.071 86.75 227.094 89.4091C227.071 94 225.923 97.8864 223.65 101.068C221.378 104.25 218.128 106.67 213.9 108.33C209.696 109.989 204.639 110.818 198.73 110.818C192.662 110.818 187.366 109.92 182.844 108.125C178.344 106.33 174.844 103.568 172.344 99.8409C169.866 96.0909 168.616 91.2955 168.594 85.4545H186.594C186.707 87.5909 187.241 89.3864 188.196 90.8409C189.15 92.2955 190.491 93.3977 192.219 94.1477C193.969 94.8977 196.048 95.2727 198.457 95.2727C200.48 95.2727 202.173 95.0227 203.537 94.5227C204.9 94.0227 205.934 93.3295 206.639 92.4432C207.344 91.5568 207.707 90.5455 207.73 89.4091C207.707 88.3409 207.355 87.4091 206.673 86.6136C206.014 85.7955 204.923 85.0682 203.4 84.4318C201.878 83.7727 199.821 83.1591 197.23 82.5909L190.275 81.0909C184.094 79.75 179.219 77.5114 175.65 74.375C172.105 71.2159 170.344 66.9091 170.366 61.4545C170.344 57.0227 171.525 53.1477 173.912 49.8295C176.321 46.4886 179.65 43.8864 183.9 42.0227C188.173 40.1591 193.071 39.2273 198.594 39.2273C204.23 39.2273 209.105 40.1705 213.219 42.0568C217.332 43.9432 220.503 46.6023 222.73 50.0341C224.98 53.4432 226.116 57.4318 226.139 62H208.003Z" fill="url(#paint0_linear_45_22)"/>
<defs>
<linearGradient id="paint0_linear_45_22" x1="58.8917" y1="39.4995" x2="211.051" y2="118.239" gradientUnits="userSpaceOnUse">
<stop stop-color="#9E88E4"/>
<stop offset="1" stop-color="#E0C8FF"/>
</linearGradient>
</defs>
</svg>
