<svg width="331" height="77" viewBox="0 0 331 77" fill="none" xmlns="http://www.w3.org/2000/svg">
<g clip-path="url(#clip0_45_22)">
<path d="M204.061 41.1752V30.2661H206.331V34.3676H206.4C206.499 34.1475 206.643 33.9238 206.831 33.6965C207.023 33.4657 207.272 33.2739 207.577 33.1212C207.886 32.9649 208.27 32.8868 208.728 32.8868C209.324 32.8868 209.875 33.0431 210.379 33.3556C210.883 33.6645 211.286 34.1315 211.588 34.7565C211.89 35.3779 212.041 36.1574 212.041 37.0949C212.041 38.0076 211.893 38.7782 211.599 39.4067C211.308 40.0317 210.91 40.5058 210.406 40.8289C209.905 41.1485 209.344 41.3083 208.722 41.3083C208.282 41.3083 207.907 41.2355 207.598 41.0899C207.293 40.9443 207.043 40.7615 206.847 40.5413C206.652 40.3176 206.503 40.0921 206.4 39.8648H206.299V41.1752H204.061ZM206.283 37.0843C206.283 37.5708 206.35 37.9951 206.485 38.3573C206.62 38.7196 206.815 39.0019 207.071 39.2043C207.327 39.4032 207.637 39.5026 208.003 39.5026C208.373 39.5026 208.685 39.4014 208.941 39.199C209.196 38.993 209.39 38.7089 209.521 38.3467C209.656 37.9809 209.724 37.5601 209.724 37.0843C209.724 36.612 209.658 36.1965 209.527 35.8378C209.395 35.4791 209.202 35.1986 208.946 34.9962C208.69 34.7938 208.376 34.6926 208.003 34.6926C207.634 34.6926 207.321 34.7902 207.066 34.9855C206.814 35.1809 206.62 35.4578 206.485 35.8165C206.35 36.1752 206.283 36.5978 206.283 37.0843ZM214.692 44.2434C214.405 44.2434 214.135 44.2203 213.883 44.1741C213.634 44.1315 213.428 44.0764 213.265 44.009L213.776 42.3151C214.042 42.3968 214.282 42.4412 214.495 42.4483C214.712 42.4554 214.898 42.4056 215.054 42.2991C215.214 42.1926 215.344 42.0115 215.443 41.7558L215.576 41.4095L212.641 32.9934H215.028L216.722 39.0019H216.807L218.517 32.9934H220.919L217.739 42.0594C217.586 42.4997 217.379 42.8833 217.116 43.21C216.857 43.5402 216.528 43.7941 216.13 43.9717C215.733 44.1528 215.253 44.2434 214.692 44.2434Z" fill="white"/>
<rect x="202.909" y="52.2322" width="19" height="19" rx="5" fill="white"/>
<path d="M240.918 61.056C240.918 62.2704 240.681 63.2949 240.209 64.1295C239.737 64.9604 239.099 65.5908 238.297 66.0204C237.494 66.4466 236.599 66.6596 235.612 66.6596C234.618 66.6596 233.719 66.4448 232.917 66.0151C232.118 65.5819 231.482 64.9498 231.01 64.1188C230.541 63.2843 230.307 62.2633 230.307 61.056C230.307 59.8415 230.541 58.8187 231.01 57.9878C231.482 57.1533 232.118 56.5229 232.917 56.0968C233.719 55.6671 234.618 55.4523 235.612 55.4523C236.599 55.4523 237.494 55.6671 238.297 56.0968C239.099 56.5229 239.737 57.1533 240.209 57.9878C240.681 58.8187 240.918 59.8415 240.918 61.056ZM237.871 61.056C237.871 60.4025 237.784 59.8521 237.61 59.4047C237.439 58.9537 237.185 58.6128 236.848 58.3819C236.514 58.1476 236.102 58.0304 235.612 58.0304C235.122 58.0304 234.708 58.1476 234.371 58.3819C234.037 58.6128 233.783 58.9537 233.609 59.4047C233.439 59.8521 233.354 60.4025 233.354 61.056C233.354 61.7094 233.439 62.2616 233.609 62.7126C233.783 63.16 234.037 63.5009 234.371 63.7353C234.708 63.9661 235.122 64.0815 235.612 64.0815C236.102 64.0815 236.514 63.9661 236.848 63.7353C237.185 63.5009 237.439 63.16 237.61 62.7126C237.784 62.2616 237.871 61.7094 237.871 61.056ZM242.03 69.5787V58.3287H244.949V59.7562H245.013C245.12 59.4792 245.276 59.2253 245.482 58.9945C245.688 58.7601 245.944 58.5737 246.249 58.4352C246.555 58.2932 246.91 58.2221 247.315 58.2221C247.854 58.2221 248.367 58.366 248.854 58.6536C249.344 58.9413 249.742 59.394 250.047 60.0119C250.356 60.6298 250.511 61.4324 250.511 62.4196C250.511 63.3642 250.363 64.1472 250.068 64.7687C249.777 65.3901 249.387 65.8535 248.897 66.1589C248.41 66.4643 247.876 66.617 247.293 66.617C246.91 66.617 246.567 66.5549 246.265 66.4306C245.967 66.3028 245.711 66.1305 245.498 65.9139C245.289 65.6937 245.127 65.4452 245.013 65.1682H244.971V69.5787H242.03ZM244.907 62.4196C244.907 62.8173 244.958 63.1618 245.061 63.453C245.168 63.7406 245.317 63.9643 245.509 64.1241C245.704 64.2804 245.937 64.3585 246.207 64.3585C246.476 64.3585 246.706 64.2822 246.894 64.1295C247.085 63.9732 247.231 63.7513 247.331 63.4636C247.434 63.1724 247.485 62.8244 247.485 62.4196C247.485 62.0148 247.434 61.6685 247.331 61.3809C247.231 61.0897 247.085 60.8677 246.894 60.715C246.706 60.5588 246.476 60.4807 246.207 60.4807C245.937 60.4807 245.704 60.5588 245.509 60.715C245.317 60.8677 245.168 61.0897 245.061 61.3809C244.958 61.6685 244.907 62.0148 244.907 62.4196ZM255.363 66.6596C254.489 66.6596 253.736 66.4927 253.104 66.1589C252.476 65.8216 251.991 65.3386 251.65 64.7101C251.313 64.078 251.144 63.3216 251.144 62.4409C251.144 61.5957 251.315 60.8571 251.655 60.225C251.996 59.5929 252.478 59.1011 253.099 58.7495C253.72 58.3979 254.454 58.2221 255.299 58.2221C255.917 58.2221 256.476 58.318 256.977 58.5098C257.478 58.7015 257.905 58.9803 258.261 59.3461C258.616 59.7083 258.889 60.1486 259.081 60.6671C259.273 61.1856 259.369 61.7697 259.369 62.4196V63.1014H252.06V61.4821H256.663C256.659 61.2477 256.599 61.0417 256.481 60.8642C256.368 60.6831 256.213 60.5428 256.018 60.4434C255.826 60.3404 255.608 60.2889 255.363 60.2889C255.125 60.2889 254.907 60.3404 254.708 60.4434C254.509 60.5428 254.349 60.6813 254.228 60.8589C254.111 61.0364 254.049 61.2442 254.042 61.4821V63.2292C254.042 63.492 254.097 63.7264 254.207 63.9324C254.317 64.1383 254.475 64.2999 254.681 64.4171C254.887 64.5343 255.136 64.5929 255.427 64.5929C255.629 64.5929 255.814 64.5645 255.981 64.5077C256.151 64.4508 256.297 64.3692 256.418 64.2626C256.538 64.1525 256.627 64.0212 256.684 63.8685H259.369C259.276 64.4366 259.058 64.9302 258.713 65.3493C258.369 65.7648 257.913 66.0879 257.344 66.3187C256.78 66.546 256.119 66.6596 255.363 66.6596ZM263.209 61.9082V66.5105H260.268V58.3287H263.06V59.8841H263.145C263.322 59.3656 263.635 58.959 264.082 58.6643C264.533 58.3695 265.059 58.2221 265.659 58.2221C266.238 58.2221 266.74 58.3553 267.166 58.6216C267.596 58.8844 267.928 59.2466 268.163 59.7083C268.4 60.1699 268.518 60.6973 268.514 61.2903V66.5105H265.574V61.9082C265.577 61.5034 265.474 61.1856 265.265 60.9547C265.059 60.7239 264.771 60.6085 264.402 60.6085C264.16 60.6085 263.949 60.6618 263.768 60.7683C263.59 60.8713 263.454 61.0204 263.358 61.2158C263.262 61.4075 263.212 61.6383 263.209 61.9082ZM275.504 59.0105C275.475 58.6554 275.342 58.3784 275.104 58.1795C274.87 57.9807 274.513 57.8812 274.034 57.8812C273.728 57.8812 273.478 57.9185 273.282 57.9931C273.091 58.0641 272.949 58.1618 272.856 58.2861C272.764 58.4104 272.716 58.5524 272.712 58.7122C272.705 58.8436 272.728 58.9626 272.782 59.0691C272.839 59.1721 272.927 59.2662 273.048 59.3514C273.169 59.4331 273.323 59.5077 273.511 59.5751C273.7 59.6426 273.923 59.703 274.183 59.7562L275.078 59.948C275.681 60.0758 276.198 60.2445 276.628 60.454C277.057 60.6636 277.409 60.9104 277.682 61.1944C277.956 61.475 278.156 61.791 278.284 62.1426C278.416 62.4942 278.483 62.8777 278.487 63.2932C278.483 64.0105 278.304 64.6177 277.949 65.1149C277.594 65.6121 277.086 65.9903 276.425 66.2495C275.768 66.5087 274.978 66.6383 274.055 66.6383C273.107 66.6383 272.279 66.4981 271.573 66.2175C270.869 65.937 270.323 65.5055 269.932 64.9231C269.545 64.3372 269.35 63.5879 269.346 62.6753H272.159C272.176 63.0091 272.26 63.2896 272.409 63.5169C272.558 63.7442 272.768 63.9164 273.037 64.0336C273.311 64.1508 273.636 64.2094 274.012 64.2094C274.328 64.2094 274.593 64.1703 274.806 64.0922C275.019 64.014 275.181 63.9057 275.291 63.7672C275.401 63.6288 275.458 63.4707 275.461 63.2932C275.458 63.1263 275.402 62.9807 275.296 62.8564C275.193 62.7285 275.023 62.6149 274.785 62.5155C274.547 62.4125 274.225 62.3166 273.82 62.2278L272.734 61.9935C271.768 61.7839 271.006 61.4341 270.449 60.9441C269.895 60.4505 269.619 59.7775 269.623 58.9253C269.619 58.2328 269.804 57.6273 270.177 57.1089C270.553 56.5868 271.074 56.1802 271.738 55.889C272.405 55.5979 273.171 55.4523 274.034 55.4523C274.914 55.4523 275.676 55.5996 276.319 55.8944C276.961 56.1891 277.457 56.6046 277.805 57.1408C278.156 57.6735 278.334 58.2967 278.337 59.0105H275.504ZM284.235 58.3287V60.4594H278.844V58.3287H284.235ZM279.889 56.3685H282.829V63.8791C282.829 63.9927 282.848 64.0886 282.887 64.1667C282.927 64.2413 282.987 64.2981 283.069 64.3372C283.15 64.3727 283.255 64.3905 283.383 64.3905C283.472 64.3905 283.575 64.3798 283.692 64.3585C283.813 64.3372 283.901 64.3194 283.958 64.3052L284.384 66.372C284.253 66.4111 284.065 66.459 283.82 66.5158C283.578 66.5726 283.291 66.6099 282.957 66.6277C282.282 66.6632 281.716 66.5939 281.257 66.4199C280.799 66.2424 280.455 65.9636 280.224 65.5837C279.993 65.2037 279.881 64.7278 279.889 64.1561V56.3685ZM288.989 66.6596C288.101 66.6596 287.341 66.4839 286.709 66.1323C286.077 65.7772 285.592 65.2836 285.255 64.6515C284.917 64.0158 284.749 63.279 284.749 62.4409C284.749 61.6028 284.917 60.8677 285.255 60.2356C285.592 59.6 286.077 59.1064 286.709 58.7548C287.341 58.3997 288.101 58.2221 288.989 58.2221C289.877 58.2221 290.637 58.3997 291.269 58.7548C291.901 59.1064 292.385 59.6 292.723 60.2356C293.06 60.8677 293.229 61.6028 293.229 62.4409C293.229 63.279 293.06 64.0158 292.723 64.6515C292.385 65.2836 291.901 65.7772 291.269 66.1323C290.637 66.4839 289.877 66.6596 288.989 66.6596ZM289.01 64.4864C289.259 64.4864 289.474 64.4029 289.655 64.236C289.836 64.0691 289.976 63.8312 290.075 63.5222C290.175 63.2133 290.225 62.8457 290.225 62.4196C290.225 61.9899 290.175 61.6224 290.075 61.317C289.976 61.008 289.836 60.7701 289.655 60.6032C289.474 60.4363 289.259 60.3528 289.01 60.3528C288.747 60.3528 288.522 60.4363 288.334 60.6032C288.145 60.7701 288.002 61.008 287.902 61.317C287.803 61.6224 287.753 61.9899 287.753 62.4196C287.753 62.8457 287.803 63.2133 287.902 63.5222C288.002 63.8312 288.145 64.0691 288.334 64.236C288.522 64.4029 288.747 64.4864 289.01 64.4864ZM298.064 66.6596C297.176 66.6596 296.416 66.4839 295.784 66.1323C295.152 65.7772 294.667 65.2836 294.33 64.6515C293.992 64.0158 293.824 63.279 293.824 62.4409C293.824 61.6028 293.992 60.8677 294.33 60.2356C294.667 59.6 295.152 59.1064 295.784 58.7548C296.416 58.3997 297.176 58.2221 298.064 58.2221C298.866 58.2221 299.561 58.3677 300.147 58.6589C300.736 58.9466 301.192 59.355 301.516 59.8841C301.839 60.4096 302.002 61.0275 302.006 61.7378H299.278C299.239 61.3081 299.115 60.9814 298.905 60.7577C298.699 60.5304 298.433 60.4167 298.106 60.4167C297.851 60.4167 297.627 60.4913 297.435 60.6405C297.244 60.7861 297.094 61.008 296.988 61.3063C296.881 61.6011 296.828 61.9721 296.828 62.4196C296.828 62.867 296.881 63.2399 296.988 63.5382C297.094 63.8329 297.244 64.0549 297.435 64.204C297.627 64.3496 297.851 64.4224 298.106 64.4224C298.323 64.4224 298.515 64.3727 298.682 64.2733C298.849 64.1703 298.984 64.0212 299.087 63.8258C299.193 63.627 299.257 63.3855 299.278 63.1014H302.006C301.995 63.8223 301.83 64.4508 301.51 64.9871C301.191 65.5197 300.738 65.9317 300.152 66.2229C299.57 66.514 298.873 66.6596 298.064 66.6596ZM305.561 64.5716L305.582 61.0773H305.966L307.947 58.3287H311.25L307.926 62.6114H307.095L305.561 64.5716ZM302.919 66.5105V55.6014H305.859V66.5105H302.919ZM307.968 66.5105L306.093 63.2719L308.011 61.1838L311.335 66.5105H307.968Z" fill="white"/>
<path d="M4.5 73.5V3.68182H34.6364C39.8182 3.68182 44.3523 4.70454 48.2386 6.75C52.125 8.79545 55.1477 11.6705 57.3068 15.375C59.4659 19.0795 60.5455 23.4091 60.5455 28.3636C60.5455 33.3636 59.4318 37.6932 57.2045 41.3523C55 45.0114 51.8977 47.8295 47.8977 49.8068C43.9205 51.7841 39.2727 52.7727 33.9545 52.7727H15.9545V38.0455H30.1364C32.3636 38.0455 34.2614 37.6591 35.8295 36.8864C37.4205 36.0909 38.6364 34.9659 39.4773 33.5114C40.3409 32.0568 40.7727 30.3409 40.7727 28.3636C40.7727 26.3636 40.3409 24.6591 39.4773 23.25C38.6364 21.8182 37.4205 20.7273 35.8295 19.9773C34.2614 19.2045 32.3636 18.8182 30.1364 18.8182H23.4545V73.5H4.5ZM123.616 38.5909C123.616 46.3636 122.105 52.9205 119.082 58.2614C116.06 63.5795 111.98 67.6136 106.844 70.3636C101.707 73.0909 95.98 74.4545 89.6618 74.4545C83.2982 74.4545 77.5482 73.0795 72.4118 70.3295C67.2982 67.5568 63.23 63.5114 60.2073 58.1932C57.2073 52.8523 55.7073 46.3182 55.7073 38.5909C55.7073 30.8182 57.2073 24.2727 60.2073 18.9545C63.23 13.6136 67.2982 9.57954 72.4118 6.85227C77.5482 4.10227 83.2982 2.72727 89.6618 2.72727C95.98 2.72727 101.707 4.10227 106.844 6.85227C111.98 9.57954 116.06 13.6136 119.082 18.9545C122.105 24.2727 123.616 30.8182 123.616 38.5909ZM104.116 38.5909C104.116 34.4091 103.56 30.8864 102.446 28.0227C101.355 25.1364 99.73 22.9545 97.5709 21.4773C95.4345 19.9773 92.7982 19.2273 89.6618 19.2273C86.5255 19.2273 83.8777 19.9773 81.7186 21.4773C79.5823 22.9545 77.9573 25.1364 76.8436 28.0227C75.7527 30.8864 75.2073 34.4091 75.2073 38.5909C75.2073 42.7727 75.7527 46.3068 76.8436 49.1932C77.9573 52.0568 79.5823 54.2386 81.7186 55.7386C83.8777 57.2159 86.5255 57.9545 89.6618 57.9545C92.7982 57.9545 95.4345 57.2159 97.5709 55.7386C99.73 54.2386 101.355 52.0568 102.446 49.1932C103.56 46.3068 104.116 42.7727 104.116 38.5909ZM158.503 25.5C158.321 23.2273 157.469 21.4545 155.946 20.1818C154.446 18.9091 152.162 18.2727 149.094 18.2727C147.139 18.2727 145.537 18.5114 144.287 18.9886C143.059 19.4432 142.15 20.0682 141.559 20.8636C140.969 21.6591 140.662 22.5682 140.639 23.5909C140.594 24.4318 140.741 25.1932 141.082 25.875C141.446 26.5341 142.014 27.1364 142.787 27.6818C143.559 28.2045 144.548 28.6818 145.753 29.1136C146.957 29.5455 148.389 29.9318 150.048 30.2727L155.775 31.5C159.639 32.3182 162.946 33.3977 165.696 34.7386C168.446 36.0795 170.696 37.6591 172.446 39.4773C174.196 41.2727 175.48 43.2955 176.298 45.5455C177.139 47.7955 177.571 50.25 177.594 52.9091C177.571 57.5 176.423 61.3864 174.15 64.5682C171.878 67.75 168.628 70.1705 164.4 71.8295C160.196 73.4886 155.139 74.3182 149.23 74.3182C143.162 74.3182 137.866 73.4205 133.344 71.625C128.844 69.8295 125.344 67.0682 122.844 63.3409C120.366 59.5909 119.116 54.7955 119.094 48.9545H137.094C137.207 51.0909 137.741 52.8864 138.696 54.3409C139.65 55.7955 140.991 56.8977 142.719 57.6477C144.469 58.3977 146.548 58.7727 148.957 58.7727C150.98 58.7727 152.673 58.5227 154.037 58.0227C155.4 57.5227 156.434 56.8295 157.139 55.9432C157.844 55.0568 158.207 54.0455 158.23 52.9091C158.207 51.8409 157.855 50.9091 157.173 50.1136C156.514 49.2955 155.423 48.5682 153.9 47.9318C152.378 47.2727 150.321 46.6591 147.73 46.0909L140.775 44.5909C134.594 43.25 129.719 41.0114 126.15 37.875C122.605 34.7159 120.844 30.4091 120.866 24.9545C120.844 20.5227 122.025 16.6477 124.412 13.3295C126.821 9.98863 130.15 7.38636 134.4 5.52272C138.673 3.65909 143.571 2.72727 149.094 2.72727C154.73 2.72727 159.605 3.67045 163.719 5.55682C167.832 7.44318 171.003 10.1023 173.23 13.5341C175.48 16.9432 176.616 20.9318 176.639 25.5H158.503Z" fill="url(#paint0_linear_45_22)"/>
</g>
<defs>
<linearGradient id="paint0_linear_45_22" x1="9.39174" y1="2.99946" x2="161.551" y2="81.7394" gradientUnits="userSpaceOnUse">
<stop stop-color="#9E88E4"/>
<stop offset="1" stop-color="#E0C8FF"/>
</linearGradient>
<clipPath id="clip0_45_22">
<rect width="331" height="77" fill="white"/>
</clipPath>
</defs>
</svg>
