<svg width="331" height="78" viewBox="0 0 331 78" fill="none" xmlns="http://www.w3.org/2000/svg">
<g clip-path="url(#clip0_51_16)">
<path d="M204.061 41.8503V30.9413H206.331V35.0428H206.4C206.499 34.8226 206.643 34.5989 206.831 34.3716C207.023 34.1408 207.272 33.9491 207.577 33.7964C207.886 33.6401 208.27 33.562 208.728 33.562C209.324 33.562 209.875 33.7182 210.379 34.0307C210.883 34.3397 211.286 34.8067 211.588 35.4317C211.89 36.0531 212.041 36.8326 212.041 37.7701C212.041 38.6827 211.893 39.4533 211.599 40.0819C211.308 40.7069 210.91 41.181 210.406 41.5041C209.905 41.8237 209.344 41.9835 208.722 41.9835C208.282 41.9835 207.907 41.9107 207.598 41.7651C207.293 41.6195 207.043 41.4366 206.847 41.2165C206.652 40.9927 206.503 40.7672 206.4 40.54H206.299V41.8503H204.061ZM206.283 37.7594C206.283 38.2459 206.35 38.6703 206.485 39.0325C206.62 39.3947 206.815 39.677 207.071 39.8795C207.327 40.0783 207.637 40.1778 208.003 40.1778C208.373 40.1778 208.685 40.0765 208.941 39.8741C209.196 39.6682 209.39 39.3841 209.521 39.0219C209.656 38.6561 209.724 38.2353 209.724 37.7594C209.724 37.2871 209.658 36.8716 209.527 36.513C209.395 36.1543 209.202 35.8738 208.946 35.6714C208.69 35.4689 208.376 35.3677 208.003 35.3677C207.634 35.3677 207.321 35.4654 207.066 35.6607C206.814 35.856 206.62 36.133 206.485 36.4917C206.35 36.8503 206.283 37.2729 206.283 37.7594ZM214.692 44.9185C214.405 44.9185 214.135 44.8954 213.883 44.8493C213.634 44.8067 213.428 44.7516 213.265 44.6841L213.776 42.9903C214.042 43.0719 214.282 43.1163 214.495 43.1234C214.712 43.1305 214.898 43.0808 215.054 42.9743C215.214 42.8677 215.344 42.6866 215.443 42.431L215.576 42.0847L212.641 33.6685H215.028L216.722 39.677H216.807L218.517 33.6685H220.919L217.739 42.7346C217.586 43.1749 217.379 43.5584 217.116 43.8851C216.857 44.2154 216.528 44.4693 216.13 44.6469C215.733 44.828 215.253 44.9185 214.692 44.9185Z" fill="#9E88E4"/>
<rect x="202.909" y="52.9073" width="19" height="19" rx="5" fill="#9E88E4"/>
<path d="M240.918 61.7311C240.918 62.9456 240.681 63.9701 240.209 64.8046C239.737 65.6356 239.099 66.2659 238.297 66.6956C237.494 67.1217 236.599 67.3348 235.612 67.3348C234.618 67.3348 233.719 67.12 232.917 66.6903C232.118 66.257 231.482 65.6249 231.01 64.794C230.541 63.9595 230.307 62.9385 230.307 61.7311C230.307 60.5166 230.541 59.4939 231.01 58.6629C231.482 57.8284 232.118 57.1981 232.917 56.772C233.719 56.3423 234.618 56.1274 235.612 56.1274C236.599 56.1274 237.494 56.3423 238.297 56.772C239.099 57.1981 239.737 57.8284 240.209 58.6629C240.681 59.4939 240.918 60.5166 240.918 61.7311ZM237.871 61.7311C237.871 61.0777 237.784 60.5273 237.61 60.0798C237.439 59.6289 237.185 59.2879 236.848 59.0571C236.514 58.8227 236.102 58.7056 235.612 58.7056C235.122 58.7056 234.708 58.8227 234.371 59.0571C234.037 59.2879 233.783 59.6289 233.609 60.0798C233.439 60.5273 233.354 61.0777 233.354 61.7311C233.354 62.3845 233.439 62.9367 233.609 63.3877C233.783 63.8352 234.037 64.1761 234.371 64.4105C234.708 64.6413 235.122 64.7567 235.612 64.7567C236.102 64.7567 236.514 64.6413 236.848 64.4105C237.185 64.1761 237.439 63.8352 237.61 63.3877C237.784 62.9367 237.871 62.3845 237.871 61.7311ZM242.03 70.2539V59.0039H244.949V60.4314H245.013C245.12 60.1544 245.276 59.9005 245.482 59.6697C245.688 59.4353 245.944 59.2489 246.249 59.1104C246.555 58.9683 246.91 58.8973 247.315 58.8973C247.854 58.8973 248.367 59.0411 248.854 59.3288C249.344 59.6164 249.742 60.0692 250.047 60.6871C250.356 61.305 250.511 62.1075 250.511 63.0948C250.511 64.0394 250.363 64.8224 250.068 65.4438C249.777 66.0653 249.387 66.5287 248.897 66.8341C248.41 67.1395 247.876 67.2922 247.293 67.2922C246.91 67.2922 246.567 67.2301 246.265 67.1058C245.967 66.9779 245.711 66.8057 245.498 66.5891C245.289 66.3689 245.127 66.1203 245.013 65.8433H244.971V70.2539H242.03ZM244.907 63.0948C244.907 63.4925 244.958 63.8369 245.061 64.1281C245.168 64.4158 245.317 64.6395 245.509 64.7993C245.704 64.9556 245.937 65.0337 246.207 65.0337C246.476 65.0337 246.706 64.9573 246.894 64.8046C247.085 64.6484 247.231 64.4264 247.331 64.1388C247.434 63.8476 247.485 63.4996 247.485 63.0948C247.485 62.6899 247.434 62.3437 247.331 62.0561C247.231 61.7649 247.085 61.5429 246.894 61.3902C246.706 61.234 246.476 61.1558 246.207 61.1558C245.937 61.1558 245.704 61.234 245.509 61.3902C245.317 61.5429 245.168 61.7649 245.061 62.0561C244.958 62.3437 244.907 62.6899 244.907 63.0948ZM255.363 67.3348C254.489 67.3348 253.736 67.1679 253.104 66.8341C252.476 66.4967 251.991 66.0138 251.65 65.3852C251.313 64.7531 251.144 63.9967 251.144 63.1161C251.144 62.2709 251.315 61.5323 251.655 60.9002C251.996 60.2681 252.478 59.7762 253.099 59.4247C253.72 59.0731 254.454 58.8973 255.299 58.8973C255.917 58.8973 256.476 58.9932 256.977 59.185C257.478 59.3767 257.905 59.6555 258.261 60.0213C258.616 60.3835 258.889 60.8238 259.081 61.3423C259.273 61.8607 259.369 62.4449 259.369 63.0948V63.7766H252.06V62.1573H256.663C256.659 61.9229 256.599 61.7169 256.481 61.5394C256.368 61.3583 256.213 61.218 256.018 61.1186C255.826 61.0156 255.608 60.9641 255.363 60.9641C255.125 60.9641 254.907 61.0156 254.708 61.1186C254.509 61.218 254.349 61.3565 254.228 61.534C254.111 61.7116 254.049 61.9193 254.042 62.1573V63.9044C254.042 64.1672 254.097 64.4016 254.207 64.6075C254.317 64.8135 254.475 64.9751 254.681 65.0923C254.887 65.2095 255.136 65.2681 255.427 65.2681C255.629 65.2681 255.814 65.2396 255.981 65.1828C256.151 65.126 256.297 65.0443 256.418 64.9378C256.538 64.8277 256.627 64.6963 256.684 64.5436H259.369C259.276 65.1118 259.058 65.6054 258.713 66.0244C258.369 66.4399 257.913 66.7631 257.344 66.9939C256.78 67.2212 256.119 67.3348 255.363 67.3348ZM263.209 62.5834V67.1857H260.268V59.0039H263.06V60.5592H263.145C263.322 60.0408 263.635 59.6342 264.082 59.3394C264.533 59.0447 265.059 58.8973 265.659 58.8973C266.238 58.8973 266.74 59.0305 267.166 59.2968C267.596 59.5596 267.928 59.9218 268.163 60.3835C268.4 60.8451 268.518 61.3725 268.514 61.9655V67.1857H265.574V62.5834C265.577 62.1786 265.474 61.8607 265.265 61.6299C265.059 61.3991 264.771 61.2837 264.402 61.2837C264.16 61.2837 263.949 61.3369 263.768 61.4435C263.59 61.5465 263.454 61.6956 263.358 61.8909C263.262 62.0827 263.212 62.3135 263.209 62.5834ZM275.504 59.6857C275.475 59.3306 275.342 59.0536 275.104 58.8547C274.87 58.6558 274.513 58.5564 274.034 58.5564C273.728 58.5564 273.478 58.5937 273.282 58.6683C273.091 58.7393 272.949 58.8369 272.856 58.9612C272.764 59.0855 272.716 59.2276 272.712 59.3874C272.705 59.5188 272.728 59.6377 272.782 59.7443C272.839 59.8472 272.927 59.9414 273.048 60.0266C273.169 60.1083 273.323 60.1828 273.511 60.2503C273.7 60.3178 273.923 60.3781 274.183 60.4314L275.078 60.6232C275.681 60.751 276.198 60.9197 276.628 61.1292C277.057 61.3387 277.409 61.5855 277.682 61.8696C277.956 62.1502 278.156 62.4662 278.284 62.8178C278.416 63.1693 278.483 63.5529 278.487 63.9683C278.483 64.6857 278.304 65.2929 277.949 65.7901C277.594 66.2872 277.086 66.6654 276.425 66.9247C275.768 67.1839 274.978 67.3135 274.055 67.3135C273.107 67.3135 272.279 67.1732 271.573 66.8927C270.869 66.6122 270.323 66.1807 269.932 65.5983C269.545 65.0124 269.35 64.2631 269.346 63.3504H272.159C272.176 63.6842 272.26 63.9648 272.409 64.1921C272.558 64.4193 272.768 64.5916 273.037 64.7088C273.311 64.8259 273.636 64.8845 274.012 64.8845C274.328 64.8845 274.593 64.8455 274.806 64.7673C275.019 64.6892 275.181 64.5809 275.291 64.4424C275.401 64.3039 275.458 64.1459 275.461 63.9683C275.458 63.8014 275.402 63.6558 275.296 63.5315C275.193 63.4037 275.023 63.2901 274.785 63.1906C274.547 63.0877 274.225 62.9918 273.82 62.903L272.734 62.6686C271.768 62.4591 271.006 62.1093 270.449 61.6193C269.895 61.1257 269.619 60.4527 269.623 59.6004C269.619 58.908 269.804 58.3025 270.177 57.784C270.553 57.262 271.074 56.8554 271.738 56.5642C272.405 56.273 273.171 56.1274 274.034 56.1274C274.914 56.1274 275.676 56.2748 276.319 56.5695C276.961 56.8643 277.457 57.2798 277.805 57.816C278.156 58.3487 278.334 58.9719 278.337 59.6857H275.504ZM284.235 59.0039V61.1345H278.844V59.0039H284.235ZM279.889 57.0436H282.829V64.5543C282.829 64.6679 282.848 64.7638 282.887 64.8419C282.927 64.9165 282.987 64.9733 283.069 65.0124C283.15 65.0479 283.255 65.0656 283.383 65.0656C283.472 65.0656 283.575 65.055 283.692 65.0337C283.813 65.0124 283.901 64.9946 283.958 64.9804L284.384 67.0472C284.253 67.0862 284.065 67.1342 283.82 67.191C283.578 67.2478 283.291 67.2851 282.957 67.3029C282.282 67.3384 281.716 67.2691 281.257 67.0951C280.799 66.9176 280.455 66.6388 280.224 66.2588C279.993 65.8789 279.881 65.403 279.889 64.8313V57.0436ZM288.989 67.3348C288.101 67.3348 287.341 67.159 286.709 66.8075C286.077 66.4524 285.592 65.9588 285.255 65.3266C284.917 64.691 284.749 63.9541 284.749 63.1161C284.749 62.278 284.917 61.5429 285.255 60.9108C285.592 60.2752 286.077 59.7815 286.709 59.43C287.341 59.0749 288.101 58.8973 288.989 58.8973C289.877 58.8973 290.637 59.0749 291.269 59.43C291.901 59.7815 292.385 60.2752 292.723 60.9108C293.06 61.5429 293.229 62.278 293.229 63.1161C293.229 63.9541 293.06 64.691 292.723 65.3266C292.385 65.9588 291.901 66.4524 291.269 66.8075C290.637 67.159 289.877 67.3348 288.989 67.3348ZM289.01 65.1615C289.259 65.1615 289.474 65.0781 289.655 64.9112C289.836 64.7443 289.976 64.5063 290.075 64.1974C290.175 63.8884 290.225 63.5209 290.225 63.0948C290.225 62.6651 290.175 62.2975 290.075 61.9921C289.976 61.6832 289.836 61.4453 289.655 61.2784C289.474 61.1115 289.259 61.028 289.01 61.028C288.747 61.028 288.522 61.1115 288.334 61.2784C288.145 61.4453 288.002 61.6832 287.902 61.9921C287.803 62.2975 287.753 62.6651 287.753 63.0948C287.753 63.5209 287.803 63.8884 287.902 64.1974C288.002 64.5063 288.145 64.7443 288.334 64.9112C288.522 65.0781 288.747 65.1615 289.01 65.1615ZM298.064 67.3348C297.176 67.3348 296.416 67.159 295.784 66.8075C295.152 66.4524 294.667 65.9588 294.33 65.3266C293.992 64.691 293.824 63.9541 293.824 63.1161C293.824 62.278 293.992 61.5429 294.33 60.9108C294.667 60.2752 295.152 59.7815 295.784 59.43C296.416 59.0749 297.176 58.8973 298.064 58.8973C298.866 58.8973 299.561 59.0429 300.147 59.3341C300.736 59.6217 301.192 60.0301 301.516 60.5592C301.839 61.0848 302.002 61.7027 302.006 62.4129H299.278C299.239 61.9833 299.115 61.6565 298.905 61.4328C298.699 61.2056 298.433 61.0919 298.106 61.0919C297.851 61.0919 297.627 61.1665 297.435 61.3156C297.244 61.4612 297.094 61.6832 296.988 61.9815C296.881 62.2762 296.828 62.6473 296.828 63.0948C296.828 63.5422 296.881 63.9151 296.988 64.2134C297.094 64.5081 297.244 64.7301 297.435 64.8792C297.627 65.0248 297.851 65.0976 298.106 65.0976C298.323 65.0976 298.515 65.0479 298.682 64.9485C298.849 64.8455 298.984 64.6963 299.087 64.501C299.193 64.3021 299.257 64.0607 299.278 63.7766H302.006C301.995 64.4975 301.83 65.126 301.51 65.6622C301.191 66.1949 300.738 66.6068 300.152 66.898C299.57 67.1892 298.873 67.3348 298.064 67.3348ZM305.561 65.2467L305.582 61.7524H305.966L307.947 59.0039H311.25L307.926 63.2865H307.095L305.561 65.2467ZM302.919 67.1857V56.2766H305.859V67.1857H302.919ZM307.968 67.1857L306.093 63.947L308.011 61.859L311.335 67.1857H307.968Z" fill="#9E88E4"/>
<path d="M4.5 74.1752V4.35699H34.6364C39.8182 4.35699 44.3523 5.37971 48.2386 7.42517C52.125 9.47062 55.1477 12.3456 57.3068 16.0502C59.4659 19.7547 60.5455 24.0843 60.5455 29.0388C60.5455 34.0388 59.4318 38.3684 57.2045 42.0274C55 45.6865 51.8977 48.5047 47.8977 50.482C43.9205 52.4593 39.2727 53.4479 33.9545 53.4479H15.9545V38.7206H30.1364C32.3636 38.7206 34.2614 38.3343 35.8295 37.5615C37.4205 36.7661 38.6364 35.6411 39.4773 34.1865C40.3409 32.732 40.7727 31.0161 40.7727 29.0388C40.7727 27.0388 40.3409 25.3343 39.4773 23.9252C38.6364 22.4934 37.4205 21.4024 35.8295 20.6524C34.2614 19.8797 32.3636 19.4933 30.1364 19.4933H23.4545V74.1752H4.5ZM123.616 39.2661C123.616 47.0388 122.105 53.5956 119.082 58.9365C116.06 64.2547 111.98 68.2888 106.844 71.0388C101.707 73.7661 95.98 75.1297 89.6618 75.1297C83.2982 75.1297 77.5482 73.7547 72.4118 71.0047C67.2982 68.232 63.23 64.1865 60.2073 58.8684C57.2073 53.5274 55.7073 46.9934 55.7073 39.2661C55.7073 31.4934 57.2073 24.9479 60.2073 19.6297C63.23 14.2888 67.2982 10.2547 72.4118 7.52744C77.5482 4.77744 83.2982 3.40244 89.6618 3.40244C95.98 3.40244 101.707 4.77744 106.844 7.52744C111.98 10.2547 116.06 14.2888 119.082 19.6297C122.105 24.9479 123.616 31.4934 123.616 39.2661ZM104.116 39.2661C104.116 35.0843 103.56 31.5615 102.446 28.6979C101.355 25.8115 99.73 23.6297 97.5709 22.1524C95.4345 20.6524 92.7982 19.9024 89.6618 19.9024C86.5255 19.9024 83.8777 20.6524 81.7186 22.1524C79.5823 23.6297 77.9573 25.8115 76.8436 28.6979C75.7527 31.5615 75.2073 35.0843 75.2073 39.2661C75.2073 43.4479 75.7527 46.982 76.8436 49.8684C77.9573 52.732 79.5823 54.9138 81.7186 56.4138C83.8777 57.8911 86.5255 58.6297 89.6618 58.6297C92.7982 58.6297 95.4345 57.8911 97.5709 56.4138C99.73 54.9138 101.355 52.732 102.446 49.8684C103.56 46.982 104.116 43.4479 104.116 39.2661ZM158.503 26.1752C158.321 23.9024 157.469 22.1297 155.946 20.857C154.446 19.5843 152.162 18.9479 149.094 18.9479C147.139 18.9479 145.537 19.1865 144.287 19.6638C143.059 20.1184 142.15 20.7434 141.559 21.5388C140.969 22.3343 140.662 23.2434 140.639 24.2661C140.594 25.107 140.741 25.8684 141.082 26.5502C141.446 27.2093 142.014 27.8115 142.787 28.357C143.559 28.8797 144.548 29.357 145.753 29.7888C146.957 30.2206 148.389 30.607 150.048 30.9479L155.775 32.1752C159.639 32.9934 162.946 34.0729 165.696 35.4138C168.446 36.7547 170.696 38.3343 172.446 40.1524C174.196 41.9479 175.48 43.9706 176.298 46.2206C177.139 48.4706 177.571 50.9252 177.594 53.5843C177.571 58.1752 176.423 62.0615 174.15 65.2434C171.878 68.4252 168.628 70.8456 164.4 72.5047C160.196 74.1638 155.139 74.9934 149.23 74.9934C143.162 74.9934 137.866 74.0956 133.344 72.3002C128.844 70.5047 125.344 67.7434 122.844 64.0161C120.366 60.2661 119.116 55.4706 119.094 49.6297H137.094C137.207 51.7661 137.741 53.5615 138.696 55.0161C139.65 56.4706 140.991 57.5729 142.719 58.3229C144.469 59.0729 146.548 59.4479 148.957 59.4479C150.98 59.4479 152.673 59.1979 154.037 58.6979C155.4 58.1979 156.434 57.5047 157.139 56.6184C157.844 55.732 158.207 54.7206 158.23 53.5843C158.207 52.5161 157.855 51.5843 157.173 50.7888C156.514 49.9706 155.423 49.2434 153.9 48.607C152.378 47.9479 150.321 47.3343 147.73 46.7661L140.775 45.2661C134.594 43.9252 129.719 41.6865 126.15 38.5502C122.605 35.3911 120.844 31.0843 120.866 25.6297C120.844 21.1979 122.025 17.3229 124.412 14.0047C126.821 10.6638 130.15 8.06153 134.4 6.1979C138.673 4.33426 143.571 3.40244 149.094 3.40244C154.73 3.40244 159.605 4.34562 163.719 6.23199C167.832 8.11835 171.003 10.7774 173.23 14.2093C175.48 17.6184 176.616 21.607 176.639 26.1752H158.503Z" fill="url(#paint0_linear_51_16)"/>
</g>
<defs>
<linearGradient id="paint0_linear_51_16" x1="9.39174" y1="3.67463" x2="161.551" y2="82.4146" gradientUnits="userSpaceOnUse">
<stop stop-color="#CCBCFF"/>
<stop offset="1" stop-color="#9E88E4"/>
</linearGradient>
<clipPath id="clip0_51_16">
<rect width="331" height="77" fill="white" transform="translate(0 0.675171)"/>
</clipPath>
</defs>
</svg>
