<svg width="416" height="151" viewBox="0 0 416 151" fill="none" xmlns="http://www.w3.org/2000/svg">
<path d="M254.046 78.1271V67.218H256.315V71.3195H256.385C256.484 71.0994 256.628 70.8757 256.816 70.6484C257.008 70.4176 257.257 70.2258 257.562 70.0731C257.871 69.9168 258.254 69.8387 258.712 69.8387C259.309 69.8387 259.86 69.995 260.364 70.3075C260.868 70.6164 261.271 71.0834 261.573 71.7084C261.875 72.3298 262.026 73.1093 262.026 74.0468C262.026 74.9595 261.878 75.7301 261.584 76.3586C261.292 76.9836 260.895 77.4577 260.39 77.7808C259.89 78.1004 259.329 78.2602 258.707 78.2602C258.267 78.2602 257.892 78.1874 257.583 78.0418C257.278 77.8963 257.027 77.7134 256.832 77.4932C256.637 77.2695 256.488 77.044 256.385 76.8167H256.284V78.1271H254.046ZM256.268 74.0362C256.268 74.5227 256.335 74.947 256.47 75.3092C256.605 75.6715 256.8 75.9538 257.056 76.1562C257.312 76.3551 257.622 76.4545 257.988 76.4545C258.357 76.4545 258.67 76.3533 258.926 76.1509C259.181 75.9449 259.375 75.6608 259.506 75.2986C259.641 74.9328 259.709 74.512 259.709 74.0362C259.709 73.5639 259.643 73.1484 259.511 72.7897C259.38 72.4311 259.187 72.1505 258.931 71.9481C258.675 71.7457 258.361 71.6445 257.988 71.6445C257.619 71.6445 257.306 71.7421 257.051 71.9374C256.798 72.1328 256.605 72.4097 256.47 72.7684C256.335 73.1271 256.268 73.5497 256.268 74.0362ZM264.677 81.1953C264.389 81.1953 264.12 81.1722 263.867 81.126C263.619 81.0834 263.413 81.0284 263.25 80.9609L263.761 79.267C264.027 79.3487 264.267 79.3931 264.48 79.4002C264.697 79.4073 264.883 79.3575 265.039 79.251C265.199 79.1445 265.329 78.9634 265.428 78.7077L265.561 78.3615L262.626 69.9453H265.013L266.707 75.9538H266.792L268.502 69.9453H270.904L267.724 79.0113C267.571 79.4516 267.364 79.8352 267.101 80.1619C266.841 80.4921 266.513 80.746 266.115 80.9236C265.718 81.1047 265.238 81.1953 264.677 81.1953Z" fill="#9E88E4"/>
<rect x="252.894" y="89.1841" width="19" height="19" rx="5" fill="#9E88E4"/>
<path d="M290.902 98.0079C290.902 99.2223 290.666 100.247 290.194 101.081C289.722 101.912 289.084 102.543 288.282 102.972C287.479 103.398 286.584 103.612 285.597 103.612C284.603 103.612 283.704 103.397 282.902 102.967C282.103 102.534 281.467 101.902 280.995 101.071C280.526 100.236 280.292 99.2152 280.292 98.0079C280.292 96.7934 280.526 95.7706 280.995 94.9397C281.467 94.1052 282.103 93.4748 282.902 93.0487C283.704 92.619 284.603 92.4042 285.597 92.4042C286.584 92.4042 287.479 92.619 288.282 93.0487C289.084 93.4748 289.722 94.1052 290.194 94.9397C290.666 95.7706 290.902 96.7934 290.902 98.0079ZM287.856 98.0079C287.856 97.3544 287.769 96.804 287.595 96.3566C287.424 95.9056 287.17 95.5647 286.833 95.3339C286.499 95.0995 286.087 94.9823 285.597 94.9823C285.107 94.9823 284.693 95.0995 284.356 95.3339C284.022 95.5647 283.768 95.9056 283.594 96.3566C283.424 96.804 283.338 97.3544 283.338 98.0079C283.338 98.6613 283.424 99.2135 283.594 99.6645C283.768 100.112 284.022 100.453 284.356 100.687C284.693 100.918 285.107 101.033 285.597 101.033C286.087 101.033 286.499 100.918 286.833 100.687C287.17 100.453 287.424 100.112 287.595 99.6645C287.769 99.2135 287.856 98.6613 287.856 98.0079ZM292.015 106.531V95.2806H294.934V96.7081H294.998C295.105 96.4312 295.261 96.1772 295.467 95.9464C295.673 95.712 295.929 95.5256 296.234 95.3871C296.539 95.2451 296.895 95.1741 297.299 95.1741C297.839 95.1741 298.352 95.3179 298.839 95.6055C299.329 95.8932 299.727 96.3459 300.032 96.9638C300.341 97.5817 300.495 98.3843 300.495 99.3715C300.495 100.316 300.348 101.099 300.053 101.721C299.762 102.342 299.371 102.805 298.881 103.111C298.395 103.416 297.86 103.569 297.278 103.569C296.895 103.569 296.552 103.507 296.25 103.383C295.952 103.255 295.696 103.082 295.483 102.866C295.273 102.646 295.112 102.397 294.998 102.12H294.956V106.531H292.015ZM294.892 99.3715C294.892 99.7692 294.943 100.114 295.046 100.405C295.153 100.693 295.302 100.916 295.494 101.076C295.689 101.232 295.922 101.31 296.191 101.31C296.461 101.31 296.69 101.234 296.879 101.081C297.07 100.925 297.216 100.703 297.315 100.416C297.418 100.124 297.47 99.7763 297.47 99.3715C297.47 98.9667 297.418 98.6204 297.315 98.3328C297.216 98.0416 297.07 97.8196 296.879 97.6669C296.69 97.5107 296.461 97.4326 296.191 97.4326C295.922 97.4326 295.689 97.5107 295.494 97.6669C295.302 97.8196 295.153 98.0416 295.046 98.3328C294.943 98.6204 294.892 98.9667 294.892 99.3715ZM305.348 103.612C304.474 103.612 303.721 103.445 303.089 103.111C302.461 102.773 301.976 102.291 301.635 101.662C301.298 101.03 301.129 100.273 301.129 99.3928C301.129 98.5476 301.299 97.809 301.64 97.1769C301.981 96.5448 302.462 96.053 303.084 95.7014C303.705 95.3498 304.439 95.1741 305.284 95.1741C305.902 95.1741 306.461 95.2699 306.962 95.4617C307.462 95.6535 307.89 95.9322 308.245 96.298C308.601 96.6602 308.874 97.1005 309.066 97.619C309.257 98.1375 309.353 98.7216 309.353 99.3715V100.053H302.045V98.434H306.647C306.644 98.1996 306.583 97.9937 306.466 97.8161C306.353 97.635 306.198 97.4947 306.003 97.3953C305.811 97.2923 305.593 97.2408 305.348 97.2408C305.11 97.2408 304.891 97.2923 304.693 97.3953C304.494 97.4947 304.334 97.6332 304.213 97.8108C304.096 97.9883 304.034 98.1961 304.027 98.434V100.181C304.027 100.444 304.082 100.678 304.192 100.884C304.302 101.09 304.46 101.252 304.666 101.369C304.872 101.486 305.12 101.545 305.412 101.545C305.614 101.545 305.799 101.516 305.966 101.46C306.136 101.403 306.282 101.321 306.402 101.215C306.523 101.104 306.612 100.973 306.669 100.82H309.353C309.261 101.389 309.043 101.882 308.698 102.301C308.354 102.717 307.897 103.04 307.329 103.271C306.765 103.498 306.104 103.612 305.348 103.612ZM313.194 98.8601V103.462H310.253V95.2806H313.044V96.836H313.13C313.307 96.3175 313.62 95.9109 314.067 95.6162C314.518 95.3214 315.044 95.1741 315.644 95.1741C316.223 95.1741 316.725 95.3072 317.151 95.5736C317.581 95.8363 317.913 96.1986 318.147 96.6602C318.385 97.1218 318.502 97.6492 318.499 98.2422V103.462H315.559V98.8601C315.562 98.4553 315.459 98.1375 315.25 97.9066C315.044 97.6758 314.756 97.5604 314.387 97.5604C314.145 97.5604 313.934 97.6137 313.753 97.7202C313.575 97.8232 313.439 97.9723 313.343 98.1677C313.247 98.3594 313.197 98.5902 313.194 98.8601ZM325.489 95.9624C325.46 95.6073 325.327 95.3303 325.089 95.1314C324.855 94.9326 324.498 94.8331 324.018 94.8331C323.713 94.8331 323.463 94.8704 323.267 94.945C323.076 95.016 322.933 95.1137 322.841 95.238C322.749 95.3623 322.701 95.5043 322.697 95.6641C322.69 95.7955 322.713 95.9145 322.767 96.021C322.823 96.124 322.912 96.2181 323.033 96.3033C323.154 96.385 323.308 96.4596 323.496 96.527C323.685 96.5945 323.908 96.6549 324.168 96.7081L325.062 96.8999C325.666 97.0277 326.183 97.1964 326.612 97.4059C327.042 97.6155 327.394 97.8623 327.667 98.1464C327.941 98.4269 328.141 98.7429 328.269 99.0945C328.4 99.4461 328.468 99.8296 328.471 100.245C328.468 100.962 328.289 101.57 327.933 102.067C327.578 102.564 327.071 102.942 326.41 103.201C325.753 103.461 324.963 103.59 324.04 103.59C323.092 103.59 322.264 103.45 321.557 103.169C320.854 102.889 320.307 102.457 319.917 101.875C319.53 101.289 319.334 100.54 319.331 99.6272H322.143C322.161 99.961 322.245 100.242 322.394 100.469C322.543 100.696 322.752 100.868 323.022 100.985C323.296 101.103 323.621 101.161 323.997 101.161C324.313 101.161 324.578 101.122 324.791 101.044C325.004 100.966 325.165 100.858 325.275 100.719C325.386 100.581 325.442 100.423 325.446 100.245C325.442 100.078 325.387 99.9326 325.281 99.8083C325.178 99.6804 325.007 99.5668 324.769 99.4674C324.532 99.3644 324.21 99.2685 323.805 99.1797L322.719 98.9454C321.753 98.7358 320.991 98.3861 320.433 97.896C319.88 97.4024 319.604 96.7294 319.608 95.8772C319.604 95.1847 319.789 94.5792 320.162 94.0608C320.538 93.5388 321.058 93.1321 321.723 92.841C322.39 92.5498 323.155 92.4042 324.018 92.4042C324.899 92.4042 325.661 92.5515 326.304 92.8463C326.946 93.141 327.442 93.5565 327.79 94.0927C328.141 94.6254 328.319 95.2486 328.322 95.9624H325.489ZM334.22 95.2806V97.4113H328.829V95.2806H334.22ZM329.873 93.3204H332.814V100.831C332.814 100.945 332.833 101.041 332.872 101.119C332.911 101.193 332.972 101.25 333.053 101.289C333.135 101.325 333.24 101.342 333.368 101.342C333.456 101.342 333.559 101.332 333.677 101.31C333.797 101.289 333.886 101.271 333.943 101.257L334.369 103.324C334.238 103.363 334.05 103.411 333.804 103.468C333.563 103.525 333.275 103.562 332.942 103.58C332.267 103.615 331.7 103.546 331.242 103.372C330.784 103.194 330.44 102.916 330.209 102.536C329.978 102.156 329.866 101.68 329.873 101.108V93.3204ZM338.974 103.612C338.086 103.612 337.326 103.436 336.694 103.084C336.062 102.729 335.577 102.235 335.24 101.603C334.902 100.968 334.734 100.231 334.734 99.3928C334.734 98.5547 334.902 97.8196 335.24 97.1875C335.577 96.5519 336.062 96.0583 336.694 95.7067C337.326 95.3516 338.086 95.1741 338.974 95.1741C339.861 95.1741 340.621 95.3516 341.254 95.7067C341.886 96.0583 342.37 96.5519 342.708 97.1875C343.045 97.8196 343.214 98.5547 343.214 99.3928C343.214 100.231 343.045 100.968 342.708 101.603C342.37 102.235 341.886 102.729 341.254 103.084C340.621 103.436 339.861 103.612 338.974 103.612ZM338.995 101.438C339.244 101.438 339.458 101.355 339.64 101.188C339.821 101.021 339.961 100.783 340.06 100.474C340.16 100.165 340.209 99.7976 340.209 99.3715C340.209 98.9418 340.16 98.5743 340.06 98.2689C339.961 97.9599 339.821 97.722 339.64 97.5551C339.458 97.3882 339.244 97.3047 338.995 97.3047C338.732 97.3047 338.507 97.3882 338.318 97.5551C338.13 97.722 337.986 97.9599 337.887 98.2689C337.788 98.5743 337.738 98.9418 337.738 99.3715C337.738 99.7976 337.788 100.165 337.887 100.474C337.986 100.783 338.13 101.021 338.318 101.188C338.507 101.355 338.732 101.438 338.995 101.438ZM348.049 103.612C347.161 103.612 346.401 103.436 345.769 103.084C345.137 102.729 344.652 102.235 344.315 101.603C343.977 100.968 343.809 100.231 343.809 99.3928C343.809 98.5547 343.977 97.8196 344.315 97.1875C344.652 96.5519 345.137 96.0583 345.769 95.7067C346.401 95.3516 347.161 95.1741 348.049 95.1741C348.851 95.1741 349.545 95.3196 350.131 95.6108C350.721 95.8985 351.177 96.3069 351.5 96.836C351.824 97.3615 351.987 97.9794 351.99 98.6897H349.263C349.224 98.26 349.1 97.9333 348.89 97.7096C348.684 97.4823 348.418 97.3687 348.091 97.3687C347.836 97.3687 347.612 97.4432 347.42 97.5924C347.228 97.738 347.079 97.9599 346.973 98.2582C346.866 98.553 346.813 98.9241 346.813 99.3715C346.813 99.8189 346.866 100.192 346.973 100.49C347.079 100.785 347.228 101.007 347.42 101.156C347.612 101.302 347.836 101.374 348.091 101.374C348.308 101.374 348.5 101.325 348.667 101.225C348.833 101.122 348.968 100.973 349.071 100.778C349.178 100.579 349.242 100.337 349.263 100.053H351.99C351.98 100.774 351.815 101.403 351.495 101.939C351.175 102.472 350.723 102.884 350.137 103.175C349.554 103.466 348.858 103.612 348.049 103.612ZM355.546 101.523L355.567 98.0292H355.95L357.932 95.2806H361.235L357.911 99.5633H357.08L355.546 101.523ZM352.904 103.462V92.5533H355.844V103.462H352.904ZM357.953 103.462L356.078 100.224L357.996 98.1357L361.32 103.462H357.953Z" fill="#9E88E4"/>
<path d="M54.4849 110.452V40.6337H84.6212C89.803 40.6337 94.3371 41.6564 98.2235 43.7019C102.11 45.7474 105.133 48.6224 107.292 52.3269C109.451 56.0314 110.53 60.361 110.53 65.3155C110.53 70.3155 109.417 74.6451 107.189 78.3042C104.985 81.9633 101.883 84.7814 97.8826 86.7587C93.9053 88.736 89.2576 89.7246 83.9394 89.7246H65.9394V74.9974H80.1212C82.3485 74.9974 84.2462 74.611 85.8144 73.8383C87.4053 73.0428 88.6212 71.9178 89.4621 70.4633C90.3258 69.0087 90.7576 67.2928 90.7576 65.3155C90.7576 63.3155 90.3258 61.611 89.4621 60.2019C88.6212 58.7701 87.4053 57.6792 85.8144 56.9292C84.2462 56.1564 82.3485 55.7701 80.1212 55.7701H73.4394V110.452H54.4849ZM173.601 75.5428C173.601 83.3155 172.09 89.8724 169.067 95.2133C166.044 100.531 161.965 104.566 156.829 107.316C151.692 110.043 145.965 111.406 139.647 111.406C133.283 111.406 127.533 110.031 122.397 107.281C117.283 104.509 113.215 100.463 110.192 95.1451C107.192 89.8042 105.692 83.2701 105.692 75.5428C105.692 67.7701 107.192 61.2246 110.192 55.9065C113.215 50.5655 117.283 46.5314 122.397 43.8042C127.533 41.0542 133.283 39.6792 139.647 39.6792C145.965 39.6792 151.692 41.0542 156.829 43.8042C161.965 46.5314 166.044 50.5655 169.067 55.9065C172.09 61.2246 173.601 67.7701 173.601 75.5428ZM154.101 75.5428C154.101 71.361 153.544 67.8383 152.431 64.9746C151.34 62.0883 149.715 59.9064 147.556 58.4292C145.419 56.9292 142.783 56.1792 139.647 56.1792C136.51 56.1792 133.863 56.9292 131.704 58.4292C129.567 59.9064 127.942 62.0883 126.829 64.9746C125.738 67.8383 125.192 71.361 125.192 75.5428C125.192 79.7246 125.738 83.2587 126.829 86.1451C127.942 89.0087 129.567 91.1905 131.704 92.6905C133.863 94.1678 136.51 94.9064 139.647 94.9064C142.783 94.9064 145.419 94.1678 147.556 92.6905C149.715 91.1905 151.34 89.0087 152.431 86.1451C153.544 83.2587 154.101 79.7246 154.101 75.5428ZM208.487 62.4519C208.306 60.1792 207.453 58.4064 205.931 57.1337C204.431 55.861 202.147 55.2246 199.078 55.2246C197.124 55.2246 195.522 55.4633 194.272 55.9405C193.044 56.3951 192.135 57.0201 191.544 57.8155C190.953 58.611 190.647 59.5201 190.624 60.5428C190.578 61.3837 190.726 62.1451 191.067 62.8269C191.431 63.486 191.999 64.0883 192.772 64.6337C193.544 65.1564 194.533 65.6337 195.737 66.0655C196.942 66.4974 198.374 66.8837 200.033 67.2246L205.76 68.4519C209.624 69.2701 212.931 70.3496 215.681 71.6905C218.431 73.0314 220.681 74.611 222.431 76.4292C224.181 78.2246 225.465 80.2474 226.283 82.4974C227.124 84.7474 227.556 87.2019 227.578 89.861C227.556 94.4519 226.408 98.3383 224.135 101.52C221.862 104.702 218.612 107.122 214.385 108.781C210.181 110.441 205.124 111.27 199.215 111.27C193.147 111.27 187.851 110.372 183.328 108.577C178.828 106.781 175.328 104.02 172.828 100.293C170.351 96.5428 169.101 91.7474 169.078 85.9065H187.078C187.192 88.0428 187.726 89.8383 188.681 91.2928C189.635 92.7474 190.976 93.8496 192.703 94.5996C194.453 95.3496 196.533 95.7246 198.942 95.7246C200.965 95.7246 202.658 95.4746 204.022 94.9746C205.385 94.4746 206.419 93.7814 207.124 92.8951C207.828 92.0087 208.192 90.9974 208.215 89.861C208.192 88.7928 207.84 87.861 207.158 87.0655C206.499 86.2474 205.408 85.5201 203.885 84.8837C202.362 84.2246 200.306 83.611 197.715 83.0428L190.76 81.5428C184.578 80.2019 179.703 77.9633 176.135 74.8269C172.59 71.6678 170.828 67.361 170.851 61.9065C170.828 57.4746 172.01 53.5996 174.397 50.2815C176.806 46.9405 180.135 44.3383 184.385 42.4746C188.658 40.611 193.556 39.6792 199.078 39.6792C204.715 39.6792 209.59 40.6224 213.703 42.5087C217.817 44.3951 220.987 47.0542 223.215 50.486C225.465 53.8951 226.601 57.8837 226.624 62.4519H208.487Z" fill="url(#paint0_linear_51_16)"/>
<defs>
<linearGradient id="paint0_linear_51_16" x1="59.3766" y1="39.9514" x2="211.536" y2="118.691" gradientUnits="userSpaceOnUse">
<stop stop-color="#CCBCFF"/>
<stop offset="1" stop-color="#9E88E4"/>
</linearGradient>
</defs>
</svg>
